<svg width="194" height="39" viewBox="0 0 194 39" fill="none" xmlns="http://www.w3.org/2000/svg">
<path d="M0 4.10938H20.6079L0 36.8472V4.10938Z" fill="white"/>
<rect y="11.2656" width="7.15463" height="33.2811" transform="rotate(-90 0 11.2656)" fill="white"/>
<path d="M15.8672 4.10938H36.2546L15.8672 36.8472V4.10938Z" fill="white"/>
<path d="M31.5078 4.10938H38.7812V36.8472H31.5078V4.10938Z" fill="white"/>
<path d="M46.6105 18V4.99689H49.8241L54.561 12.7059L52.0532 12.6873L56.8458 4.99689H59.948V18H56.4V14.5263C56.4 13.4118 56.4248 12.4087 56.4743 11.517C56.5362 10.6254 56.6353 9.73993 56.7715 8.86067L57.1802 9.95665L53.8551 15.1022H52.6291L49.3783 9.95665L49.787 8.86067C49.9232 9.6904 50.0161 10.5449 50.0656 11.4241C50.1275 12.291 50.1585 13.3251 50.1585 14.5263V18H46.6105ZM61.2629 18L66.4456 4.99689H69.4178L74.5633 18H70.9038L68.6747 11.9628C68.5509 11.6285 68.4394 11.3189 68.3404 11.034C68.2413 10.7492 68.1484 10.4706 68.0617 10.1981C67.975 9.92569 67.8883 9.64705 67.8017 9.36222C67.7274 9.07739 67.6592 8.76779 67.5973 8.43343L68.1917 8.41485C68.1174 8.77399 68.0369 9.09597 67.9503 9.3808C67.876 9.66563 67.7955 9.93807 67.7088 10.1981C67.6221 10.4582 67.523 10.7306 67.4116 11.0155C67.3125 11.3003 67.201 11.6161 67.0772 11.9628L64.8481 18H61.2629ZM63.7893 15.8452L64.8852 13.2446H70.9038L71.9255 15.8452H63.7893ZM78.059 18L72.8763 4.99689H76.5915L78.8392 11.0526C78.9878 11.4365 79.1116 11.7709 79.2107 12.0557C79.3098 12.3282 79.3965 12.5882 79.4708 12.8359C79.5451 13.0712 79.6194 13.3251 79.6937 13.5975C79.768 13.8576 79.8423 14.1734 79.9166 14.5449H79.3036C79.4151 14.0619 79.5203 13.6532 79.6194 13.3189C79.7185 12.9845 79.8237 12.6502 79.9352 12.3158C80.059 11.9814 80.2138 11.5604 80.3996 11.0526L82.6101 4.99689H86.2324L81.0126 18H78.059ZM87.6987 18V4.99689H97.1538V8.02476H91.2281V14.9721H97.4325V18H87.6987ZM89.4449 12.8359V9.97523H96.4108V12.8359H89.4449ZM99.9436 18V4.99689H103.231L109.547 13.6532L108.786 13.4675C108.724 13.0093 108.668 12.5944 108.618 12.2229C108.581 11.8514 108.544 11.4984 108.507 11.1641C108.482 10.8297 108.458 10.4953 108.433 10.161C108.42 9.82662 108.414 9.46129 108.414 9.06501C108.414 8.66872 108.414 8.2229 108.414 7.72755V4.99689H111.962V18H108.637L101.838 8.71207L103.12 9.02786C103.182 9.5356 103.231 9.97523 103.269 10.3467C103.318 10.7183 103.355 11.0526 103.38 11.3498C103.405 11.6471 103.423 11.9319 103.436 12.2043C103.461 12.4768 103.473 12.7678 103.473 13.0774C103.485 13.387 103.492 13.7399 103.492 14.1362V18H99.9436Z" fill="white"/>
<path d="M47.3974 34.4531V24.3208H49.2906V25.97H49.4159C49.627 25.4115 49.9722 24.9761 50.4516 24.6639C50.9309 24.3472 51.5048 24.1889 52.1733 24.1889C52.8505 24.1889 53.4178 24.3472 53.8752 24.6639C54.3369 24.9805 54.6777 25.4159 54.8976 25.97H55.0032C55.245 25.4291 55.6298 24.9981 56.1576 24.677C56.6853 24.3516 57.3142 24.1889 58.0442 24.1889C58.9633 24.1889 59.7131 24.477 60.2936 25.0531C60.8785 25.6291 61.1709 26.4977 61.1709 27.6587V34.4531H59.1986V27.8434C59.1986 27.1573 59.0117 26.6604 58.6379 26.3526C58.2641 26.0447 57.8177 25.8908 57.2988 25.8908C56.6567 25.8908 56.1576 26.0887 55.8014 26.4845C55.4451 26.8759 55.267 27.3794 55.267 27.9951V34.4531H53.3013V27.7181C53.3013 27.1683 53.1298 26.7264 52.7867 26.3921C52.4437 26.0579 51.9973 25.8908 51.4476 25.8908C51.0738 25.8908 50.7286 25.9898 50.412 26.1877C50.0997 26.3812 49.8469 26.6516 49.6534 26.999C49.4643 27.3464 49.3697 27.7488 49.3697 28.2062V34.4531H47.3974ZM66.7632 34.6774C66.1211 34.6774 65.5406 34.5587 65.0217 34.3212C64.5027 34.0793 64.0916 33.7297 63.7881 33.2723C63.4891 32.815 63.3396 32.2543 63.3396 31.5902C63.3396 31.0185 63.4495 30.548 63.6694 30.1786C63.8893 29.8092 64.1861 29.5167 64.5599 29.3012C64.9337 29.0857 65.3515 28.923 65.8133 28.8131C66.275 28.7031 66.7456 28.6196 67.2249 28.5624C67.8318 28.492 68.3243 28.4349 68.7025 28.3909C69.0807 28.3425 69.3556 28.2656 69.5271 28.16C69.6986 28.0545 69.7844 27.883 69.7844 27.6455V27.5993C69.7844 27.0232 69.6217 26.5769 69.2962 26.2602C68.9752 25.9436 68.4959 25.7853 67.8582 25.7853C67.1941 25.7853 66.6708 25.9326 66.2882 26.2272C65.91 26.5175 65.6483 26.8407 65.5032 27.1969L63.6496 26.7747C63.8695 26.1591 64.1905 25.6621 64.6127 25.2839C65.0393 24.9013 65.5296 24.6243 66.0837 24.4528C66.6378 24.2769 67.2205 24.1889 67.8318 24.1889C68.2364 24.1889 68.6652 24.2373 69.1181 24.334C69.5755 24.4264 70.0021 24.5979 70.3979 24.8486C70.798 25.0992 71.1257 25.4576 71.3807 25.9238C71.6358 26.3856 71.7633 26.9858 71.7633 27.7247V34.4531H69.8371V33.0679H69.758C69.6305 33.3229 69.4392 33.5736 69.1841 33.8199C68.929 34.0661 68.6014 34.2706 68.2012 34.4333C67.801 34.5961 67.3217 34.6774 66.7632 34.6774ZM67.1919 33.0942C67.7372 33.0942 68.2034 32.9865 68.5904 32.771C68.9818 32.5555 69.2786 32.2741 69.4809 31.9266C69.6876 31.5748 69.791 31.1988 69.791 30.7986V29.4925C69.7206 29.5629 69.5843 29.6289 69.382 29.6904C69.1841 29.7476 68.9576 29.7982 68.7025 29.8421C68.4475 29.8817 68.199 29.9191 67.9571 29.9543C67.7153 29.9851 67.513 30.0115 67.3503 30.0334C66.9677 30.0818 66.618 30.1632 66.3014 30.2775C65.9892 30.3919 65.7385 30.5568 65.5494 30.7723C65.3647 30.9833 65.2723 31.2648 65.2723 31.6166C65.2723 32.1048 65.4526 32.4742 65.8133 32.7248C66.1739 32.9711 66.6334 33.0942 67.1919 33.0942ZM74.3904 34.4531V24.3208H76.2968V25.9304H76.4024C76.5871 25.3851 76.9125 24.9563 77.3786 24.6441C77.8492 24.3274 78.3813 24.1691 78.975 24.1691C79.0981 24.1691 79.2433 24.1735 79.4104 24.1823C79.5819 24.1911 79.716 24.2021 79.8128 24.2153V26.1019C79.7336 26.0799 79.5929 26.0557 79.3906 26.0293C79.1883 25.9986 78.986 25.9832 78.7837 25.9832C78.3176 25.9832 77.902 26.0821 77.537 26.28C77.1764 26.4735 76.8905 26.744 76.6794 27.0914C76.4683 27.4344 76.3628 27.8258 76.3628 28.2656V34.4531H74.3904ZM83.3337 31.0163L83.3205 28.6086H83.6635L87.7006 24.3208H90.0622L85.4578 29.2023H85.1477L83.3337 31.0163ZM81.5196 34.4531V20.9434H83.492V34.4531H81.5196ZM87.9183 34.4531L84.2902 29.6376L85.6491 28.259L90.3392 34.4531H87.9183ZM95.8094 34.6576C94.8111 34.6576 93.9514 34.4443 93.2301 34.0178C92.5133 33.5868 91.9592 32.9821 91.5678 32.2037C91.1808 31.4209 90.9873 30.504 90.9873 29.4529C90.9873 28.4151 91.1808 27.5004 91.5678 26.7088C91.9592 25.9172 92.5045 25.2993 93.2038 24.8552C93.9074 24.411 94.7298 24.1889 95.6709 24.1889C96.2426 24.1889 96.7967 24.2835 97.3332 24.4726C97.8697 24.6617 98.3513 24.9585 98.7778 25.3631C99.2044 25.7677 99.5408 26.2932 99.7871 26.9397C100.033 27.5817 100.157 28.3623 100.157 29.2814V29.9807H92.1021V28.503H98.2237C98.2237 27.9841 98.1182 27.5246 97.9071 27.1244C97.696 26.7198 97.3992 26.4009 97.0166 26.1679C96.6384 25.9348 96.1942 25.8182 95.6841 25.8182C95.1299 25.8182 94.6462 25.9546 94.2328 26.2272C93.8238 26.4955 93.5072 26.8473 93.2829 27.2827C93.063 27.7137 92.9531 28.182 92.9531 28.6877V29.8421C92.9531 30.5194 93.0718 31.0955 93.3093 31.5704C93.5512 32.0454 93.8876 32.4082 94.3186 32.6589C94.7495 32.9051 95.2531 33.0283 95.8292 33.0283C96.203 33.0283 96.5438 32.9755 96.8516 32.87C97.1595 32.76 97.4255 32.5973 97.6498 32.3818C97.8741 32.1663 98.0456 31.9003 98.1644 31.5836L100.031 31.9201C99.8817 32.4698 99.6134 32.9513 99.2264 33.3647C98.8438 33.7737 98.3622 34.0925 97.7818 34.3212C97.2057 34.5455 96.5482 34.6576 95.8094 34.6576ZM107.075 24.3208V25.904H101.54V24.3208H107.075ZM103.024 21.8933H104.997V31.4781C104.997 31.8607 105.054 32.1487 105.168 32.3422C105.283 32.5313 105.43 32.6611 105.61 32.7314C105.795 32.7974 105.995 32.8304 106.21 32.8304C106.369 32.8304 106.507 32.8194 106.626 32.7974C106.745 32.7754 106.837 32.7578 106.903 32.7446L107.259 34.374C107.145 34.4179 106.982 34.4619 106.771 34.5059C106.56 34.5543 106.296 34.5807 105.98 34.5851C105.461 34.5939 104.977 34.5015 104.528 34.308C104.08 34.1145 103.717 33.8155 103.44 33.4109C103.163 33.0063 103.024 32.4983 103.024 31.8871V21.8933ZM109.256 34.4531V24.3208H111.229V34.4531H109.256ZM110.253 22.7575C109.91 22.7575 109.615 22.6431 109.369 22.4144C109.127 22.1814 109.006 21.9043 109.006 21.5833C109.006 21.2578 109.127 20.9808 109.369 20.7521C109.615 20.519 109.91 20.4025 110.253 20.4025C110.596 20.4025 110.888 20.519 111.13 20.7521C111.376 20.9808 111.499 21.2578 111.499 21.5833C111.499 21.9043 111.376 22.1814 111.13 22.4144C110.888 22.6431 110.596 22.7575 110.253 22.7575ZM115.855 28.4371V34.4531H113.882V24.3208H115.775V25.97H115.901C116.134 25.4335 116.499 25.0025 116.996 24.677C117.497 24.3516 118.128 24.1889 118.889 24.1889C119.579 24.1889 120.184 24.334 120.703 24.6243C121.222 24.9101 121.624 25.3367 121.91 25.904C122.196 26.4713 122.339 27.1727 122.339 28.0083V34.4531H120.367V28.2458C120.367 27.5114 120.175 26.9375 119.793 26.5241C119.41 26.1063 118.885 25.8974 118.216 25.8974C117.759 25.8974 117.352 25.9964 116.996 26.1943C116.644 26.3921 116.365 26.6824 116.158 27.065C115.956 27.4432 115.855 27.9006 115.855 28.4371ZM129.232 38.4638C128.428 38.4638 127.735 38.3583 127.155 38.1472C126.578 37.9361 126.108 37.6568 125.743 37.3094C125.378 36.962 125.105 36.5816 124.925 36.1682L126.62 35.469C126.739 35.6625 126.897 35.867 127.095 36.0825C127.297 36.3024 127.57 36.4893 127.913 36.6432C128.261 36.7971 128.707 36.8741 129.252 36.8741C130 36.8741 130.618 36.6916 131.106 36.3265C131.594 35.9659 131.838 35.3898 131.838 34.5982V32.6061H131.713C131.594 32.8216 131.422 33.0613 131.198 33.3251C130.978 33.589 130.675 33.8177 130.288 34.0112C129.901 34.2047 129.397 34.3014 128.777 34.3014C127.977 34.3014 127.256 34.1145 126.614 33.7407C125.976 33.3625 125.47 32.8062 125.096 32.0718C124.727 31.333 124.542 30.4248 124.542 29.3474C124.542 28.27 124.725 27.3464 125.09 26.5769C125.459 25.8073 125.965 25.218 126.607 24.809C127.249 24.3956 127.977 24.1889 128.79 24.1889C129.419 24.1889 129.927 24.2944 130.314 24.5055C130.701 24.7122 131.003 24.9541 131.218 25.2312C131.438 25.5082 131.607 25.7523 131.726 25.9634H131.871V24.3208H133.804V34.6774C133.804 35.5482 133.602 36.2628 133.197 36.8213C132.792 37.3798 132.245 37.7932 131.554 38.0614C130.868 38.3297 130.094 38.4638 129.232 38.4638ZM129.213 32.6655C129.78 32.6655 130.259 32.5335 130.651 32.2697C131.046 32.0014 131.346 31.6188 131.548 31.1219C131.755 30.6205 131.858 30.0202 131.858 29.321C131.858 28.6394 131.757 28.0391 131.554 27.5202C131.352 27.0012 131.055 26.5966 130.664 26.3064C130.272 26.0117 129.789 25.8644 129.213 25.8644C128.619 25.8644 128.124 26.0183 127.728 26.3262C127.333 26.6296 127.034 27.043 126.831 27.5663C126.633 28.0897 126.534 28.6746 126.534 29.321C126.534 29.9851 126.636 30.5678 126.838 31.0691C127.04 31.5704 127.339 31.9618 127.735 32.2433C128.135 32.5247 128.628 32.6655 129.213 32.6655ZM145.613 38.4638C144.809 38.4638 144.116 38.3583 143.535 38.1472C142.959 37.9361 142.489 37.6568 142.124 37.3094C141.759 36.962 141.486 36.5816 141.306 36.1682L143.001 35.469C143.12 35.6625 143.278 35.867 143.476 36.0825C143.678 36.3024 143.951 36.4893 144.294 36.6432C144.641 36.7971 145.088 36.8741 145.633 36.8741C146.381 36.8741 146.999 36.6916 147.487 36.3265C147.975 35.9659 148.219 35.3898 148.219 34.5982V32.6061H148.094C147.975 32.8216 147.803 33.0613 147.579 33.3251C147.359 33.589 147.056 33.8177 146.669 34.0112C146.282 34.2047 145.778 34.3014 145.158 34.3014C144.358 34.3014 143.637 34.1145 142.994 33.7407C142.357 33.3625 141.851 32.8062 141.477 32.0718C141.108 31.333 140.923 30.4248 140.923 29.3474C140.923 28.27 141.106 27.3464 141.471 26.5769C141.84 25.8073 142.346 25.218 142.988 24.809C143.63 24.3956 144.358 24.1889 145.171 24.1889C145.8 24.1889 146.308 24.2944 146.695 24.5055C147.082 24.7122 147.383 24.9541 147.599 25.2312C147.819 25.5082 147.988 25.7523 148.107 25.9634H148.252V24.3208H150.185V34.6774C150.185 35.5482 149.982 36.2628 149.578 36.8213C149.173 37.3798 148.626 37.7932 147.935 38.0614C147.249 38.3297 146.475 38.4638 145.613 38.4638ZM145.594 32.6655C146.161 32.6655 146.64 32.5335 147.032 32.2697C147.427 32.0014 147.726 31.6188 147.929 31.1219C148.135 30.6205 148.239 30.0202 148.239 29.321C148.239 28.6394 148.138 28.0391 147.935 27.5202C147.733 27.0012 147.436 26.5966 147.045 26.3064C146.653 26.0117 146.17 25.8644 145.594 25.8644C145 25.8644 144.505 26.0183 144.109 26.3262C143.713 26.6296 143.414 27.043 143.212 27.5663C143.014 28.0897 142.915 28.6746 142.915 29.321C142.915 29.9851 143.016 30.5678 143.219 31.0691C143.421 31.5704 143.72 31.9618 144.116 32.2433C144.516 32.5247 145.009 32.6655 145.594 32.6655ZM152.83 34.4531V24.3208H154.736V25.9304H154.842C155.027 25.3851 155.352 24.9563 155.818 24.6441C156.289 24.3274 156.821 24.1691 157.415 24.1691C157.538 24.1691 157.683 24.1735 157.85 24.1823C158.021 24.1911 158.156 24.2021 158.252 24.2153V26.1019C158.173 26.0799 158.032 26.0557 157.83 26.0293C157.628 25.9986 157.426 25.9832 157.223 25.9832C156.757 25.9832 156.341 26.0821 155.976 26.28C155.616 26.4735 155.33 26.744 155.119 27.0914C154.908 27.4344 154.802 27.8258 154.802 28.2656V34.4531H152.83ZM163.864 34.6576C162.914 34.6576 162.085 34.4399 161.377 34.0046C160.669 33.5692 160.12 32.9601 159.728 32.1773C159.337 31.3945 159.141 30.4798 159.141 29.4332C159.141 28.3821 159.337 27.463 159.728 26.6758C160.12 25.8886 160.669 25.2773 161.377 24.842C162.085 24.4066 162.914 24.1889 163.864 24.1889C164.814 24.1889 165.643 24.4066 166.351 24.842C167.059 25.2773 167.609 25.8886 168 26.6758C168.392 27.463 168.587 28.3821 168.587 29.4332C168.587 30.4798 168.392 31.3945 168 32.1773C167.609 32.9601 167.059 33.5692 166.351 34.0046C165.643 34.4399 164.814 34.6576 163.864 34.6576ZM163.871 33.0019C164.487 33.0019 164.997 32.8392 165.401 32.5137C165.806 32.1883 166.105 31.7551 166.298 31.2142C166.496 30.6733 166.595 30.0774 166.595 29.4266C166.595 28.7801 166.496 28.1864 166.298 27.6455C166.105 27.1002 165.806 26.6626 165.401 26.3328C164.997 26.003 164.487 25.838 163.871 25.838C163.251 25.838 162.736 26.003 162.327 26.3328C161.923 26.6626 161.621 27.1002 161.424 27.6455C161.23 28.1864 161.133 28.7801 161.133 29.4266C161.133 30.0774 161.23 30.6733 161.424 31.2142C161.621 31.7551 161.923 32.1883 162.327 32.5137C162.736 32.8392 163.251 33.0019 163.871 33.0019ZM177.207 30.2511V24.3208H179.186V34.4531H177.247V32.6984H177.141C176.908 33.2394 176.535 33.6901 176.02 34.0507C175.51 34.4069 174.874 34.5851 174.114 34.5851C173.463 34.5851 172.887 34.4421 172.385 34.1563C171.888 33.866 171.497 33.4373 171.211 32.87C170.93 32.3027 170.789 31.6012 170.789 30.7657V24.3208H172.761V30.5282C172.761 31.2186 172.953 31.7683 173.335 32.1773C173.718 32.5863 174.215 32.7908 174.826 32.7908C175.195 32.7908 175.563 32.6984 175.928 32.5137C176.297 32.329 176.603 32.0498 176.845 31.676C177.091 31.3022 177.212 30.8272 177.207 30.2511ZM181.837 38.2527V24.3208H183.763V25.9634H183.928C184.042 25.7523 184.207 25.5082 184.422 25.2312C184.638 24.9541 184.937 24.7122 185.32 24.5055C185.702 24.2944 186.208 24.1889 186.837 24.1889C187.655 24.1889 188.385 24.3956 189.027 24.809C189.669 25.2224 190.172 25.8182 190.537 26.5966C190.907 27.375 191.092 28.3117 191.092 29.4068C191.092 30.5018 190.909 31.4407 190.544 32.2235C190.179 33.0019 189.678 33.6022 189.04 34.0243C188.402 34.4421 187.674 34.651 186.857 34.651C186.241 34.651 185.737 34.5477 185.346 34.341C184.959 34.1343 184.655 33.8924 184.436 33.6154C184.216 33.3383 184.046 33.092 183.928 32.8766H183.809V38.2527H181.837ZM183.769 29.387C183.769 30.0994 183.873 30.7239 184.079 31.2604C184.286 31.7969 184.585 32.2169 184.977 32.5203C185.368 32.8194 185.847 32.9689 186.415 32.9689C187.004 32.9689 187.496 32.8128 187.892 32.5005C188.288 32.1839 188.587 31.7551 188.789 31.2142C188.996 30.6733 189.099 30.0642 189.099 29.387C189.099 28.7185 188.998 28.1182 188.796 27.5861C188.598 27.054 188.299 26.634 187.899 26.3262C187.503 26.0183 187.008 25.8644 186.415 25.8644C185.843 25.8644 185.359 26.0117 184.963 26.3064C184.572 26.601 184.275 27.0122 184.073 27.5399C183.87 28.0677 183.769 28.6833 183.769 29.387Z" fill="white"/>
</svg>
